<svg width="30" height="31" viewBox="0 0 30 31" fill="none" xmlns="http://www.w3.org/2000/svg">
<path d="M15 15.5C13.625 15.5 12.4479 14.9941 11.4688 13.9823C10.4896 12.9704 10 11.7541 10 10.3333C10 8.91246 10.4896 7.69614 11.4688 6.68433C12.4479 5.67253 13.625 5.16663 15 5.16663C16.375 5.16663 17.5521 5.67253 18.5312 6.68433C19.5104 7.69614 20 8.91246 20 10.3333C20 11.7541 19.5104 12.9704 18.5312 13.9823C17.5521 14.9941 16.375 15.5 15 15.5ZM5 25.8333V22.2166C5 21.4847 5.18229 20.8119 5.54688 20.1984C5.91146 19.5849 6.39583 19.1166 7 18.7937C8.29167 18.1263 9.60417 17.6258 10.9375 17.2921C12.2708 16.9585 13.625 16.7916 15 16.7916C16.375 16.7916 17.7292 16.9585 19.0625 17.2921C20.3958 17.6258 21.7083 18.1263 23 18.7937C23.6042 19.1166 24.0885 19.5849 24.4531 20.1984C24.8177 20.8119 25 21.4847 25 22.2166V25.8333H5ZM7.5 23.25H22.5V22.2166C22.5 21.9798 22.4427 21.7645 22.3281 21.5708C22.2135 21.377 22.0625 21.2263 21.875 21.1187C20.75 20.5375 19.6146 20.1015 18.4688 19.8109C17.3229 19.5203 16.1667 19.375 15 19.375C13.8333 19.375 12.6771 19.5203 11.5312 19.8109C10.3854 20.1015 9.25 20.5375 8.125 21.1187C7.9375 21.2263 7.78646 21.377 7.67188 21.5708C7.55729 21.7645 7.5 21.9798 7.5 22.2166V23.25ZM15 12.9166C15.6875 12.9166 16.276 12.6637 16.7656 12.1578C17.2552 11.6519 17.5 11.0437 17.5 10.3333C17.5 9.62288 17.2552 9.01472 16.7656 8.50881C16.276 8.00291 15.6875 7.74996 15 7.74996C14.3125 7.74996 13.724 8.00291 13.2344 8.50881C12.7448 9.01472 12.5 9.62288 12.5 10.3333C12.5 11.0437 12.7448 11.6519 13.2344 12.1578C13.724 12.6637 14.3125 12.9166 15 12.9166Z" fill="#D9D9D9"/>
</svg>
