<svg width="139" height="77" viewBox="0 0 139 77" fill="none" xmlns="http://www.w3.org/2000/svg">
<g filter="url(#filter0_f_277_30)">
<path d="M6.37573 35.1747H1.57104C1.32104 35.1747 1.19604 35.0653 1.19604 34.8466L1.14917 2.15125C1.14917 1.90125 1.27417 1.77625 1.52417 1.77625H5.86011L13.9695 20.6903L13.7351 2.15125C13.7351 1.90125 13.8757 1.77625 14.157 1.77625H18.9148C19.1023 1.77625 19.196 1.90125 19.196 2.15125L19.2429 34.8934C19.2429 35.0809 19.1648 35.1747 19.0085 35.1747H14.7898L6.46948 17.5028L6.82104 34.7997C6.82104 35.0497 6.67261 35.1747 6.37573 35.1747ZM32.2976 35.6434C30.5945 35.6434 29.0242 35.2059 27.5867 34.3309C26.1648 33.4559 25.0164 32.2919 24.1414 30.8387C23.282 29.37 22.8523 27.7606 22.8523 26.0106L22.8992 10.7997C22.8992 9.01843 23.3289 7.41687 24.1882 5.995C25.032 4.5575 26.1726 3.40906 27.6101 2.54968C29.0476 1.67468 30.6101 1.23718 32.2976 1.23718C34.0476 1.23718 35.6179 1.66687 37.0085 2.52625C38.4148 3.38562 39.5398 4.54187 40.3835 5.995C41.2429 7.4325 41.6726 9.03406 41.6726 10.7997L41.7195 26.0106C41.7195 27.7606 41.2976 29.3622 40.4539 30.8153C39.5945 32.2841 38.4539 33.4559 37.032 34.3309C35.6101 35.2059 34.032 35.6434 32.2976 35.6434ZM32.2976 29.8544C33.2664 29.8544 34.1101 29.4637 34.8289 28.6825C35.5476 27.8856 35.907 26.995 35.907 26.0106L35.8601 10.7997C35.8601 9.73718 35.5242 8.83875 34.8523 8.10437C34.1804 7.37 33.3289 7.00281 32.2976 7.00281C31.3132 7.00281 30.4695 7.36218 29.7664 8.08093C29.0632 8.79968 28.7117 9.70593 28.7117 10.7997V26.0106C28.7117 27.0575 29.0632 27.9637 29.7664 28.7294C30.4695 29.4794 31.3132 29.8544 32.2976 29.8544ZM55.5945 35.1747H50.1804C50.0398 35.1747 49.9695 35.0966 49.9695 34.9403V7.56531H43.7351C43.5789 7.56531 43.5007 7.48718 43.5007 7.33093L43.5476 1.96375C43.5476 1.83875 43.6101 1.77625 43.7351 1.77625H61.9695C62.1414 1.77625 62.2273 1.83875 62.2273 1.96375V7.33093C62.2273 7.48718 62.1648 7.56531 62.0398 7.56531H55.7351L55.782 34.9403C55.782 35.0966 55.7195 35.1747 55.5945 35.1747ZM70.196 35.1747H64.7585C64.6335 35.1747 64.571 35.0966 64.571 34.9403L64.6179 1.96375C64.6179 1.83875 64.696 1.77625 64.8523 1.77625H70.196C70.3523 1.77625 70.4304 1.83875 70.4304 1.96375L70.3835 15.0184H77.5789V1.96375C77.5789 1.83875 77.6414 1.77625 77.7664 1.77625H83.1101C83.2664 1.77625 83.3445 1.83875 83.3445 1.96375L83.4382 34.9403C83.4382 35.0966 83.3601 35.1747 83.2039 35.1747H77.8132C77.657 35.1747 77.5789 35.0966 77.5789 34.9403V20.8309H70.3835V34.9403C70.3835 35.0966 70.321 35.1747 70.196 35.1747ZM93.0242 35.1747H87.5867C87.4304 35.1747 87.3523 35.0966 87.3523 34.9403L87.3992 1.96375C87.3992 1.83875 87.4617 1.77625 87.5867 1.77625H92.9773C93.1023 1.77625 93.1648 1.83875 93.1648 1.96375L93.2117 34.9403C93.2117 35.0966 93.1492 35.1747 93.0242 35.1747ZM102.657 35.1747H97.8523C97.6023 35.1747 97.4773 35.0653 97.4773 34.8466L97.4304 2.15125C97.4304 1.90125 97.5554 1.77625 97.8054 1.77625H102.141L110.251 20.6903L110.016 2.15125C110.016 1.90125 110.157 1.77625 110.438 1.77625H115.196C115.384 1.77625 115.477 1.90125 115.477 2.15125L115.524 34.8934C115.524 35.0809 115.446 35.1747 115.29 35.1747H111.071L102.751 17.5028L103.102 34.7997C103.102 35.0497 102.954 35.1747 102.657 35.1747ZM128.485 35.6434C126.751 35.6434 125.188 35.2137 123.798 34.3544C122.391 33.495 121.259 32.3387 120.399 30.8856C119.555 29.4325 119.134 27.8075 119.134 26.0106V10.7997C119.134 9.04968 119.563 7.45593 120.423 6.01843C121.266 4.56531 122.399 3.40906 123.821 2.54968C125.243 1.67468 126.798 1.23718 128.485 1.23718C130.251 1.23718 131.844 1.65906 133.266 2.50281C134.688 3.36218 135.813 4.51062 136.641 5.94812C137.485 7.38562 137.907 9.00281 137.907 10.7997V13.0028C137.907 13.1278 137.829 13.1903 137.673 13.1903H132.282C132.157 13.1903 132.094 13.1278 132.094 13.0028V11.1747C132.094 9.95593 131.751 8.94812 131.063 8.15125C130.376 7.35437 129.516 6.95593 128.485 6.95593C127.563 6.95593 126.743 7.33875 126.024 8.10437C125.305 8.87 124.946 9.76843 124.946 10.7997V26.0106C124.946 27.0575 125.298 27.9637 126.001 28.7294C126.704 29.4794 127.532 29.8544 128.485 29.8544C129.516 29.8544 130.376 29.4872 131.063 28.7528C131.751 28.0028 132.094 27.0887 132.094 26.0106V23.6434H128.743C128.571 23.6434 128.485 23.5653 128.485 23.4091V18.0419C128.485 17.8856 128.571 17.8075 128.743 17.8075H137.719C137.844 17.8075 137.907 17.8856 137.907 18.0419V26.0106C137.907 27.8075 137.485 29.4325 136.641 30.8856C135.782 32.3387 134.649 33.495 133.243 34.3544C131.837 35.2137 130.251 35.6434 128.485 35.6434ZM9.93823 75.1747H1.33667C1.21167 75.1747 1.14917 75.0966 1.14917 74.9403L1.24292 41.9637C1.24292 41.8387 1.30542 41.7762 1.43042 41.7762H10.6648C12.4617 41.7762 14.0945 42.2137 15.5632 43.0887C17.0007 43.9637 18.1335 45.1278 18.9617 46.5809C19.7898 48.0184 20.2039 49.5809 20.2039 51.2684C20.2039 52.6434 19.8914 53.9247 19.2664 55.1122C18.6414 56.2997 17.8992 57.2606 17.0398 57.995C17.9617 58.9169 18.6804 59.9872 19.196 61.2059C19.7117 62.4247 19.9695 63.7059 19.9695 65.0497C19.9695 66.9091 19.5242 68.6044 18.6335 70.1356C17.7273 71.6669 16.5164 72.8934 15.0007 73.8153C13.4851 74.7216 11.7976 75.1747 9.93823 75.1747ZM10.6648 47.4716H7.00854V55.0184H10.6648C11.7742 55.0184 12.6726 54.6278 13.3601 53.8466C14.0476 53.0497 14.3914 52.1903 14.3914 51.2684C14.3914 50.2528 14.0242 49.37 13.2898 48.62C12.5554 47.8544 11.6804 47.4716 10.6648 47.4716ZM9.93823 60.8309H7.00854L6.96167 69.3153H9.93823C11.0945 69.3153 12.0867 68.8934 12.9148 68.0497C13.7429 67.2059 14.157 66.2059 14.157 65.0497C14.157 63.8934 13.7429 62.9012 12.9148 62.0731C12.0867 61.245 11.0945 60.8309 9.93823 60.8309ZM32.2507 75.6434C30.5632 75.6434 29.0007 75.2059 27.5632 74.3309C26.1257 73.4559 24.9773 72.2841 24.1179 70.8153C23.2742 69.3309 22.8523 67.7137 22.8523 65.9637L22.946 41.9637C22.946 41.8387 23.0085 41.7762 23.1335 41.7762H28.5242C28.6492 41.7762 28.7117 41.8387 28.7117 41.9637V65.9637C28.7117 67.0419 29.0554 67.9637 29.7429 68.7294C30.4304 69.4794 31.2664 69.8544 32.2507 69.8544C33.282 69.8544 34.1414 69.4794 34.8289 68.7294C35.5164 67.9637 35.8601 67.0419 35.8601 65.9637V41.9637C35.8601 41.8387 35.9226 41.7762 36.0476 41.7762H41.4382C41.5632 41.7762 41.6257 41.8387 41.6257 41.9637L41.7195 65.9637C41.7195 67.7294 41.2976 69.3544 40.4539 70.8387C39.5945 72.3075 38.4539 73.4794 37.032 74.3544C35.6101 75.2137 34.0164 75.6434 32.2507 75.6434ZM55.7351 75.1747H50.321C50.1804 75.1747 50.1101 75.0966 50.1101 74.9403V47.5653H43.8757C43.7195 47.5653 43.6414 47.4872 43.6414 47.3309L43.6882 41.9637C43.6882 41.8387 43.7507 41.7762 43.8757 41.7762H62.1101C62.282 41.7762 62.3679 41.8387 62.3679 41.9637V47.3309C62.3679 47.4872 62.3054 47.5653 62.1804 47.5653H55.8757L55.9226 74.9403C55.9226 75.0966 55.8601 75.1747 55.7351 75.1747ZM86.0164 75.6434C84.3289 75.6434 82.7664 75.2059 81.3289 74.3309C79.8914 73.4559 78.7429 72.2841 77.8835 70.8153C77.0398 69.3309 76.6179 67.7137 76.6179 65.9637L76.7117 41.9637C76.7117 41.8387 76.7742 41.7762 76.8992 41.7762H82.2898C82.4148 41.7762 82.4773 41.8387 82.4773 41.9637V65.9637C82.4773 67.0419 82.821 67.9637 83.5085 68.7294C84.196 69.4794 85.032 69.8544 86.0164 69.8544C87.0476 69.8544 87.907 69.4794 88.5945 68.7294C89.282 67.9637 89.6257 67.0419 89.6257 65.9637V41.9637C89.6257 41.8387 89.6882 41.7762 89.8132 41.7762H95.2039C95.3289 41.7762 95.3914 41.8387 95.3914 41.9637L95.4851 65.9637C95.4851 67.7294 95.0632 69.3544 94.2195 70.8387C93.3601 72.3075 92.2195 73.4794 90.7976 74.3544C89.3757 75.2137 87.782 75.6434 86.0164 75.6434ZM107.415 75.6434C105.712 75.6434 104.141 75.2059 102.704 74.3309C101.282 73.4559 100.141 72.2919 99.282 70.8387C98.4382 69.37 98.0164 67.7606 98.0164 66.0106V63.8075C98.0164 63.6356 98.0945 63.5497 98.2507 63.5497H103.641C103.766 63.5497 103.829 63.6356 103.829 63.8075V66.0106C103.829 67.0575 104.18 67.9637 104.884 68.7294C105.587 69.4794 106.43 69.8544 107.415 69.8544C108.415 69.8544 109.266 69.4716 109.969 68.7059C110.673 67.9247 111.024 67.0262 111.024 66.0106C111.024 64.8387 110.259 63.8153 108.727 62.9403C108.477 62.7841 108.149 62.5966 107.743 62.3778C107.352 62.1434 106.884 61.8778 106.337 61.5809C105.79 61.2841 105.259 60.995 104.743 60.7137C104.227 60.4169 103.727 60.1356 103.243 59.87C101.493 58.8387 100.188 57.5497 99.3289 56.0028C98.4851 54.4403 98.0632 52.6903 98.0632 50.7528C98.0632 48.9716 98.5007 47.3622 99.3757 45.9247C100.251 44.5028 101.391 43.3778 102.798 42.5497C104.219 41.7059 105.759 41.2841 107.415 41.2841C109.118 41.2841 110.68 41.7059 112.102 42.5497C113.524 43.4091 114.657 44.5497 115.501 45.9716C116.36 47.3934 116.79 48.9872 116.79 50.7528V54.6903C116.79 54.8153 116.727 54.8778 116.602 54.8778H111.212C111.087 54.8778 111.024 54.8153 111.024 54.6903L110.977 50.7528C110.977 49.6278 110.626 48.7137 109.923 48.0106C109.219 47.3075 108.384 46.9559 107.415 46.9559C106.43 46.9559 105.587 47.3309 104.884 48.0809C104.18 48.8309 103.829 49.7216 103.829 50.7528C103.829 51.7997 104.048 52.6747 104.485 53.3778C104.938 54.0809 105.759 54.7528 106.946 55.3934C107.071 55.4559 107.36 55.6122 107.813 55.8622C108.266 56.1122 108.766 56.3934 109.313 56.7059C109.876 57.0028 110.384 57.2762 110.837 57.5262C111.29 57.7606 111.563 57.9012 111.657 57.9481C113.251 58.8387 114.509 59.9325 115.43 61.2294C116.368 62.5262 116.837 64.12 116.837 66.0106C116.837 67.8387 116.415 69.4794 115.571 70.9325C114.712 72.3856 113.571 73.5341 112.149 74.3778C110.727 75.2216 109.149 75.6434 107.415 75.6434Z" fill="#D9D9D9"/>
</g>
<defs>
<filter id="filter0_f_277_30" x="0.14917" y="0.237183" width="138.758" height="76.4062" filterUnits="userSpaceOnUse" color-interpolation-filters="sRGB">
<feFlood flood-opacity="0" result="BackgroundImageFix"/>
<feBlend mode="normal" in="SourceGraphic" in2="BackgroundImageFix" result="shape"/>
<feGaussianBlur stdDeviation="0.5" result="effect1_foregroundBlur_277_30"/>
</filter>
</defs>
</svg>
